<svg width="512" height="512" viewBox="0 0 512 512" xmlns="http://www.w3.org/2000/svg">
  <defs>
    <linearGradient id="spectrumStripe" x1="0%" y1="0%" x2="0%" y2="100%">
      <stop offset="0%" style="stop-color:#D50000;stop-opacity:1" /> <stop offset="25%" style="stop-color:#D50000;stop-opacity:1" />
      <stop offset="25%" style="stop-color:#FFEA00;stop-opacity:1" /> <stop offset="50%" style="stop-color:#FFEA00;stop-opacity:1" />
      <stop offset="50%" style="stop-color:#00C853;stop-opacity:1" /> <stop offset="75%" style="stop-color:#00C853;stop-opacity:1" />
      <stop offset="75%" style="stop-color:#00B0FF;stop-opacity:1" /> <stop offset="100%" style="stop-color:#00B0FF;stop-opacity:1" />
    </linearGradient>
  </defs>

  <rect x="64" y="40" width="384" height="432" rx="20" fill="#212121" stroke="#424242" stroke-width="8"/>

  <g fill="#BDBDBD">
      <rect x="20" y="80" width="44" height="30" rx="4"/><rect x="20" y="130" width="44" height="30" rx="4"/>
      <rect x="20" y="180" width="44" height="30" rx="4"/><rect x="20" y="230" width="44" height="30" rx="4"/>
      <rect x="20" y="280" width="44" height="30" rx="4"/><rect x="20" y="330" width="44" height="30" rx="4"/>
      <rect x="20" y="380" width="44" height="30" rx="4"/><rect x="448" y="80" width="44" height="30" rx="4"/>
      <rect x="448" y="130" width="44" height="30" rx="4"/><rect x="448" y="180" width="44" height="30" rx="4"/>
      <rect x="448" y="230" width="44" height="30" rx="4"/><rect x="448" y="280" width="44" height="30" rx="4"/>
      <rect x="448" y="330" width="44" height="30" rx="4"/><rect x="448" y="380" width="44" height="30" rx="4"/>
  </g>

  <rect x="110" y="100" width="292" height="312" rx="10" fill="url(#spectrumStripe)" stroke="#000000" stroke-width="6"/>

  <g fill="#FFFFFF" transform="translate(160, 190) scale(1.2)">
     <rect x="20" y="0" width="20" height="20"/><rect x="0" y="20" width="20" height="20"/>
    <rect x="0" y="40" width="20" height="20"/><rect x="-20" y="60" width="20" height="20"/>
    <rect x="0" y="80" width="20" height="20"/><rect x="0" y="100" width="20" height="20"/>
    <rect x="20" y="120" width="20" height="20"/>
    <rect x="120" y="0" width="20" height="20"/><rect x="140" y="20" width="20" height="20"/>
    <rect x="140" y="40" width="20" height="20"/><rect x="160" y="60" width="20" height="20"/>
    <rect x="140" y="80" width="20" height="20"/><rect x="140" y="100" width="20" height="20"/>
    <rect x="120" y="120" width="20" height="20"/>
     <rect x="60" y="40" width="20" height="20"/><rect x="80" y="60" width="20" height="20"/>
    <rect x="60" y="80" width="20" height="20"/><rect x="60" y="110" width="40" height="20"/>
  </g>
</svg>